<svg width="225" height="35" viewBox="0 0 225 35" fill="none" xmlns="http://www.w3.org/2000/svg">
<g clip-path="url(#clip0_1_20)">
<path d="M0 2.56493L25.3988 28.3365C26.4439 29.3903 28.1346 29.398 29.1874 28.352L39.3085 18.2247L31.3085 22.5793C30.0558 23.2612 28.5035 23.052 27.466 22.0602L5.18734 0.635554C4.31126 -0.201285 2.93565 -0.209033 2.05957 0.620057L0 2.56493Z" fill="white"/>
<path d="M18.3132 9.96457L28.3805 20.1694C29.3796 21.1767 31.0011 21.1844 32.0001 20.1694L49.2759 2.73522L47.1933 0.798092C46.1865 -0.139477 44.6265 -0.131728 43.6275 0.813589L29.833 13.8233C28.7494 14.8461 27.1279 15.0398 25.8368 14.296L18.3055 9.96457H18.3132Z" fill="white"/>
<path d="M79.9312 32.4352L54.5324 6.66371C53.4873 5.60992 51.7966 5.60217 50.7438 6.64822L40.6227 16.7755L48.6227 12.4209C49.8754 11.739 51.4277 11.9482 52.4652 12.94L74.7515 34.3646C75.6276 35.2015 77.0032 35.2092 77.8793 34.3801L79.9312 32.4352Z" fill="white"/>
<path d="M61.6179 25.0354L51.5507 14.8307C50.5516 13.8233 48.9301 13.8156 47.931 14.8307L30.6553 32.2648L32.7379 34.2019C33.7446 35.1395 35.3047 35.1317 36.3037 34.1864L50.0982 21.1767C51.1818 20.1539 52.8033 19.9602 54.0944 20.704L61.6256 25.0354H61.6179Z" fill="white"/>
<path d="M73.5373 4.47089C70.4941 4.47089 68.0195 6.95816 68.0195 10.0343V10.1738H86.448V25.1439C86.448 28.1426 88.8611 30.5756 91.8352 30.5756H92.1042V10.1738H104.439C107.267 10.1738 109.557 7.86473 109.557 5.01328V4.47089H73.5373Z" fill="white"/>
<path d="M123.828 10.2048H143.647V4.47089H123.828C116.573 4.47089 110.686 10.4062 110.686 17.7208C110.686 25.0354 116.573 30.9708 123.828 30.9708H143.647V25.2369H123.828C120.523 25.2369 117.71 23.0518 116.734 20.0376H134.364C135.824 20.0376 137.007 18.8444 137.007 17.3721V14.7609H116.965C118.102 12.0722 120.746 10.1893 123.828 10.1893V10.2048Z" fill="white"/>
<path d="M161.561 25.2446C157.349 25.2446 153.945 21.7113 154.106 17.4341C154.26 13.3662 157.703 10.2048 161.745 10.2048H181.38V4.47089H161.561C154.306 4.47089 148.419 10.4062 148.419 17.7208C148.419 25.0354 154.306 30.9708 161.561 30.9708H175.693C178.836 30.9708 181.38 28.406 181.38 25.2369H161.561V25.2446Z" fill="white"/>
<path d="M219.421 4.47089V14.1255C216.354 11.2818 212.258 9.54616 207.763 9.54616H203.182C198.687 9.54616 194.598 11.2818 191.524 14.1255V4.47089H185.945V30.9708H191.524V25.4383C192.254 19.6037 197.204 15.0786 203.182 15.0786H207.763C213.742 15.0786 218.691 19.6037 219.421 25.4383V30.9708H225V4.47089H219.421Z" fill="white"/>
</g>
<defs>
<clipPath id="clip0_1_20">
<rect width="225" height="35" fill="white"/>
</clipPath>
</defs>
</svg>
